<!-- by TradingView --><svg width="56" height="56" xmlns="http://www.w3.org/2000/svg"><path fill="#C5013D" d="M0 0h56v56H0z"/><path d="M41.404 14.559C37.738 10.892 33.244 9 27.922 9c-5.203 0-9.697 1.892-13.364 5.559C10.892 18.224 9 22.718 9 27.922c0 5.204 1.892 9.698 5.558 13.364 3.667 3.666 8.16 5.558 13.364 5.558 5.322 0 9.816-1.892 13.482-5.558 3.666-3.666 5.559-8.16 5.559-13.364 0-5.203-1.892-9.697-5.559-13.364z" fill="#fff"/><path d="M27.942 11.957c-4.376 0-8.062 1.636-11.136 4.829-3.075 2.956-4.632 6.76-4.632 11.136 0 4.258 1.576 8.042 4.533 11.235 3.193 2.957 6.978 4.485 11.235 4.485 4.376 0 8.16-1.528 11.235-4.485 3.075-3.193 4.583-6.859 4.583-11.235V27H33v2h9.33c-.236 3.666-1.763 6.718-4.483 9.32-2.839 2.602-6.12 3.893-9.905 3.893-4.02 0-7.332-1.4-10.052-4.238-2.839-2.72-4.287-6.032-4.287-10.053 0-3.902 1.448-7.312 4.287-10.15 2.72-2.839 6.031-4.288 10.052-4.288h.788v-1.527h-.788zM27 19v17h6v-2h-4V19h-2z" fill="#C5013D"/><circle cx="22" cy="22" r="2" fill="#C5013D"/></svg>