<!-- by TradingView --><svg width="56" height="56" viewBox="0 0 56 56" xmlns="http://www.w3.org/2000/svg"><path fill="#F0F3FA" d="M0 0h56v56H0z"/><path fill-rule="evenodd" d="M5.99 23h5.43l-.44 1.01c-.1.24-.33.4-.58.4H6.78a.32.32 0 0 0-.31.26l-.41 2.12c.26-.4.72-.5.92-.51h3.15l-.41.97c-.1.25-.33.4-.59.4h-2.9a.32.32 0 0 0-.3.27l-.24 1.2c-.04.2.11.4.32.4h3.62c.4 0 .7.38.63.8l-.13.68H4.96c-.6 0-1.05-.57-.94-1.2l1.02-5.97A.97.97 0 0 1 6 23Zm9.56 4.06 1.25-.83A2.6 2.6 0 0 0 14.73 25c-2.46 0-3.95 1.65-3.95 3.35 0 1.3.95 2.65 2.63 2.65 1.35 0 2.6-1.08 3.05-1.62l-1.07-.56c-.5.5-1.1.9-1.88.9-.8 0-1.44-.9-1.2-1.77.25-.87 1-1.65 1.99-1.65.79 0 1.17.5 1.25.76Zm6.62 2.97c-1.35 1.22-3.3 1.3-4.38.18-1.07-1.12-.85-3.02.5-4.24 1.34-1.22 3.3-1.3 4.37-.18 1.07 1.12.85 3.02-.5 4.24Zm-.85-.89c-.76.69-1.86.73-2.46.1-.6-.63-.48-1.7.28-2.38.75-.69 1.85-.73 2.46-.1.6.63.47 1.7-.28 2.38Z" fill="#0E87D4"/><path fill-rule="evenodd" d="m23.55 31 1.23-7.3c.07-.4.4-.7.79-.7h3.42c.63 0 1.9.42 1.9 2.09 0 2.08-1.87 2.91-2.8 2.91h-1.81a.8.8 0 0 0-.79.68l-.3 1.76a.65.65 0 0 1-.62.56h-1.02Zm2.22-3.85.46-2.78h2.3c.27.01.8.21.8.93 0 .9-.76 1.3-1.18 1.3H26.5c-.16 0-.53.12-.73.55Zm10.88 3.06c1.07 1.12 3.02 1.04 4.37-.18s1.57-3.12.5-4.24-3.03-1.04-4.38.18c-1.34 1.22-1.57 3.12-.5 4.24Zm1.06-.97c.6.63 1.7.59 2.46-.1.76-.68.88-1.75.28-2.38-.6-.63-1.7-.59-2.46.1-.75.68-.88 1.75-.28 2.38ZM30.72 31l.96-5.46a.65.65 0 0 1 .63-.54h.96l-.16.83c.15-.28.67-.83 1.55-.83h2.05l-.56 1.11a.64.64 0 0 1-.56.36h-1.25c-.78 0-1.45.59-1.58 1.4l-.42 2.71a.49.49 0 0 1-.48.42h-1.14Z" fill="#023E9A"/><path fill-rule="evenodd" d="m47.35 31 .71-3.86a.16.16 0 0 1 .16-.14h.6c.07 0 .14.06.15.14l.5 2.96 1.61-3.01a.16.16 0 0 1 .14-.09h.62c.1 0 .18.1.16.2L51.3 31h-.43c-.1 0-.17-.1-.15-.2l.47-2.84L49.58 31h-.52l-.52-3.04-.53 2.9a.16.16 0 0 1-.15.14h-.5Zm-1.63 0h-1.44a.5.5 0 0 1-.47-.59l.54-3c.04-.24.24-.41.47-.41h1.43c.4 0 .93.24.93.89 0 .52-.55.91-.83 1.04.59 0 .72.47.72.7 0 .92-.9 1.3-1.35 1.37Zm-.68-3.26a.16.16 0 0 1 .16-.14h.8c.33 0 .56.32.46.64a.48.48 0 0 1-.46.36h-.77a.52.52 0 0 0-.34.15l.15-1Zm-.4 2.47.17-.88a.16.16 0 0 1 .15-.13h1.05c.12.02.36.14.36.52 0 .46-.47.7-.69.7h-.89c-.1 0-.18-.1-.16-.2Z" fill="#FD5F07"/></svg>